<?xml version="1.0" standalone="no"?>
<!DOCTYPE svg PUBLIC "-//W3C//DTD SVG 20010904//EN" "http://www.w3.org/TR/2001/REC-SVG-20010904/DTD/svg10.dtd">
<svg version="1.0" xmlns="http://www.w3.org/2000/svg"
    width="700.000000pt" height="700.000000pt" viewBox="0 0 700.000000 700.000000"
    preserveAspectRatio="xMidYMid meet">
    <metadata> Created by Belet Video 2023 </metadata>
    <g transform="translate(0.000000,700.000000) scale(0.100000,-0.100000)"
        fill="#000000" stroke="none">
        <path
            d="M2557 6164 c-1 -1 -36 -4 -77 -8 -41 -3 -86 -8 -100 -11 -14 -3 -41
-8 -60 -11 -163 -25 -403 -125 -566 -235 -149 -100 -249 -194 -365 -342 -56
-73 -169 -253 -169 -272 0 -2 -11 -28 -24 -57 -55 -122 -99 -292 -114 -444
-10 -101 -8 -2603 2 -2649 3 -16 9 -46 12 -65 55 -345 247 -678 524 -911 271
-227 636 -363 980 -363 289 0 537 69 808 225 59 34 125 72 147 85 22 12 139
79 260 149 303 176 533 309 575 332 19 11 80 46 135 78 55 32 114 66 130 75
50 29 223 128 355 205 69 40 141 82 160 93 357 202 479 298 634 497 153 197
260 444 292 678 3 23 7 53 9 67 7 41 7 272 1 320 -4 25 -9 63 -12 85 -10 71
-44 198 -80 295 -95 260 -287 518 -513 688 -57 43 -871 548 -1155 717 -19 11
-128 77 -242 146 -267 161 -732 429 -832 478 -160 80 -361 135 -537 147 -114
7 -175 10 -178 8z m328 -170 c152 -31 317 -97 461 -184 35 -22 69 -40 74 -40
5 0 11 -3 13 -7 3 -5 -27 -9 -66 -11 -40 -1 -83 -5 -97 -7 -14 -3 -41 -8 -60
-11 -19 -3 -82 -21 -139 -40 -424 -141 -727 -518 -768 -957 -5 -45 -8 -546 -7
-1113 1 -1021 1 -1032 22 -1100 43 -140 131 -245 254 -307 40 -20 80 -38 88
-40 9 -3 -9 -16 -43 -31 -429 -194 -925 -68 -1207 308 -55 74 -118 192 -143
271 -51 155 -50 140 -52 1095 -1 904 2 996 36 1130 90 347 292 641 571 826
169 113 360 192 528 220 19 3 38 8 41 10 4 2 58 7 120 10 63 4 115 7 116 8 6
5 189 -16 258 -30z m799 -418 c148 -44 206 -75 531 -276 126 -78 366 -226 399
-245 171 -99 734 -449 798 -495 236 -171 438 -470 513 -757 48 -182 60 -407
30 -578 -62 -360 -234 -643 -520 -857 -68 -51 -254 -168 -268 -168 -2 0 13 35
34 78 41 84 84 222 95 300 3 26 8 50 10 54 11 17 3 262 -10 339 -52 293 -214
549 -457 721 -35 25 -181 113 -324 195 -143 82 -496 286 -785 452 -289 167
-545 315 -570 329 -25 14 -61 35 -80 47 -192 120 -427 107 -599 -33 l-44 -36
6 65 c43 432 352 782 779 879 127 28 342 22 462 -14z m-754 -944 c25 -11 266
-147 535 -302 270 -156 509 -293 532 -306 23 -13 92 -53 153 -89 61 -36 115
-65 121 -65 5 0 9 -4 9 -10 0 -5 4 -10 10 -10 5 0 42 -19 81 -42 138 -83 201
-186 201 -328 0 -153 -63 -248 -234 -347 -57 -33 -292 -169 -523 -303 -231
-133 -456 -263 -500 -289 -186 -110 -356 -203 -401 -220 -198 -73 -436 66
-470 274 -4 22 -7 425 -7 895 0 638 3 866 13 900 32 121 124 213 255 257 53
17 168 10 225 -15z m1904 -1118 c223 -190 348 -485 332 -789 -13 -267 -114
-488 -305 -667 -103 -98 -112 -103 -1016 -623 -132 -76 -310 -179 -395 -228
-188 -109 -264 -147 -355 -182 -231 -87 -456 -109 -714 -70 -348 53 -716 287
-919 582 -117 171 -204 384 -227 553 -3 25 -8 53 -11 62 -6 20 -15 332 -9 327
2 -2 29 -40 60 -83 229 -320 592 -500 970 -483 238 11 363 54 650 222 83 48
251 146 375 218 124 72 263 152 310 180 47 27 103 59 125 72 50 28 475 272
495 284 8 6 80 47 160 93 221 126 309 226 343 390 14 64 15 165 3 213 l-7 27
32 -19 c17 -10 63 -45 103 -79z" />
    </g>
</svg>